#N canvas 428 53 1184 916 12;
#N canvas 0 22 450 278 (subpatch) 0;
#X array popo 16 float 2;
#X coords 0 1 16 0 255 10 1 0 0;
#X restore 131 183 graph;
#X obj 371 467 unpack 0 0;
#X floatatom 371 557 5 0 0 0 - - -;
#X floatatom 438 557 5 0 0 0 - - -;
#X obj 371 603 tabwrite popo;
#X obj 131 204 tgl 15 0 empty empty empty 17 7 0 10 -261234 -1 -1 0
1;
#X obj 147 204 tgl 15 0 empty empty empty 17 7 0 10 -262144 -1 -1 0
1;
#X obj 163 204 tgl 15 0 empty empty empty 17 7 0 10 -262144 -1 -1 0
1;
#X obj 179 204 tgl 15 0 empty empty empty 17 7 0 10 -262144 -1 -1 0
1;
#X obj 195 204 tgl 15 0 empty empty empty 17 7 0 10 -261234 -1 -1 0
1;
#X obj 211 204 tgl 15 0 empty empty empty 17 7 0 10 -262144 -1 -1 0
1;
#X obj 227 204 tgl 15 0 empty empty empty 17 7 0 10 -262144 -1 -1 0
1;
#X obj 243 204 tgl 15 0 empty empty empty 17 7 0 10 -262144 -1 -1 0
1;
#X obj 259 204 tgl 15 0 empty empty empty 17 7 0 10 -261234 -1 -1 0
1;
#X obj 275 204 tgl 15 0 empty empty empty 17 7 0 10 -262144 -1 -1 0
1;
#X obj 291 204 tgl 15 0 empty empty empty 17 7 0 10 -262144 -1 -1 0
1;
#X obj 307 204 tgl 15 0 empty empty empty 17 7 0 10 -262144 -1 -1 0
1;
#X obj 323 204 tgl 15 0 empty empty empty 17 7 0 10 -261234 -1 -1 0
1;
#X obj 339 204 tgl 15 0 empty empty empty 17 7 0 10 -262144 -1 -1 0
1;
#X obj 355 204 tgl 15 0 empty empty empty 17 7 0 10 -262144 -1 -1 0
1;
#X obj 371 204 tgl 15 0 empty empty empty 17 7 0 10 -262144 -1 -1 0
1;
#X msg 77 250 \$1 0;
#X msg 87 277 \$1 1;
#X msg 124 250 \$1 2;
#X msg 134 277 \$1 3;
#X msg 171 250 \$1 4;
#X msg 181 277 \$1 5;
#X msg 218 250 \$1 6;
#X msg 228 277 \$1 7;
#X msg 265 250 \$1 8;
#X msg 275 277 \$1 9;
#X msg 312 250 \$1 10;
#X msg 322 277 \$1 11;
#X msg 366 250 \$1 12;
#X msg 376 277 \$1 13;
#X msg 420 250 \$1 14;
#X msg 430 277 \$1 15;
#X obj 371 515 tgl 15 0 empty empty empty 17 7 0 10 -262144 -1 -1 0
1;
#X obj 618 202 tgl 15 0 empty empty empty 17 7 0 10 -262144 -1 -1 0
1;
#X obj 618 288 bng 15 250 50 0 empty empty empty 17 7 0 10 -262144
-1 -1;
#X obj 618 318 counter 0 0 15;
#X floatatom 618 362 5 0 0 0 - - -;
#X obj 618 402 tabread popo;
#X floatatom 618 444 5 0 0 0 - - -;
#X obj 618 482 select 1;
#X obj 618 516 bng 15 250 50 0 empty empty empty 17 7 0 10 -262144
-1 -1;
#X obj 603 657 bng 15 250 50 0 empty empty empty 17 7 0 10 -262144
-1 -1;
#X obj 603 715 openpanel;
#X msg 603 752 read -resize \$1 sound;
#X obj 603 790 soundfiler;
#X obj 618 548 tabplay~ sound;
#X obj 619 606 dac~;
#X obj 851 742 tgl 15 0 empty empty empty 17 7 0 10 -262144 -1 -1 0
1;
#X msg 851 783 \; pd dsp \$1;
#N canvas 0 22 450 278 (subpatch) 0;
#X array sound 15789 float 2;
#X coords 0 1 15789 -1 200 140 1;
#X restore 365 717 graph;
#X floatatom 671 217 5 0 0 2 Tempo - -;
#X obj 618 248 metro 120;
#X obj 806 410 bng 15 250 50 0 empty empty Reset 17 7 0 10 -262144
-1 -1;
#X text 747 304 counter object is loading from cyclone library # add
library Help > Find external Search 'cyclone';
#X connect 1 0 37 0;
#X connect 1 1 3 0;
#X connect 2 0 4 0;
#X connect 3 0 4 1;
#X connect 5 0 21 0;
#X connect 6 0 22 0;
#X connect 7 0 23 0;
#X connect 8 0 24 0;
#X connect 9 0 25 0;
#X connect 10 0 26 0;
#X connect 11 0 27 0;
#X connect 12 0 28 0;
#X connect 13 0 29 0;
#X connect 14 0 30 0;
#X connect 15 0 31 0;
#X connect 16 0 32 0;
#X connect 17 0 33 0;
#X connect 18 0 34 0;
#X connect 19 0 35 0;
#X connect 20 0 36 0;
#X connect 21 0 1 0;
#X connect 22 0 1 0;
#X connect 23 0 1 0;
#X connect 24 0 1 0;
#X connect 25 0 1 0;
#X connect 26 0 1 0;
#X connect 27 0 1 0;
#X connect 28 0 1 0;
#X connect 29 0 1 0;
#X connect 30 0 1 0;
#X connect 31 0 1 0;
#X connect 32 0 1 0;
#X connect 33 0 1 0;
#X connect 34 0 1 0;
#X connect 35 0 1 0;
#X connect 36 0 1 0;
#X connect 37 0 2 0;
#X connect 38 0 56 0;
#X connect 39 0 40 0;
#X connect 40 0 41 0;
#X connect 41 0 42 0;
#X connect 42 0 43 0;
#X connect 43 0 44 0;
#X connect 44 0 45 0;
#X connect 45 0 50 0;
#X connect 46 0 47 0;
#X connect 47 0 48 0;
#X connect 48 0 49 0;
#X connect 50 0 51 0;
#X connect 50 0 51 1;
#X connect 52 0 53 0;
#X connect 55 0 56 1;
#X connect 56 0 39 0;
#X connect 57 0 40 2;
