#N canvas 488 23 845 746 12;
#N canvas 0 22 450 278 (subpatch) 0;
#X array popo 16 float 3;
#A 0 1 0 0 0 1 0 0 1 1 0 0 1 0 1 0 0;
#X coords 0 1 16 0 255 10 1 0 0;
#X restore 261 183 graph;
#X obj 501 467 unpack 0 0;
#X floatatom 500 514 5 0 0 0 - - -;
#X floatatom 562 515 5 0 0 0 - - -;
#X obj 501 560 tabwrite popo;
#X obj 261 204 tgl 15 0 empty empty empty 17 7 0 10 -261234 -1 -1 1
1;
#X obj 277 204 tgl 15 0 empty empty empty 17 7 0 10 -262144 -1 -1 0
1;
#X obj 293 204 tgl 15 0 empty empty empty 17 7 0 10 -262144 -1 -1 0
1;
#X obj 309 204 tgl 15 0 empty empty empty 17 7 0 10 -262144 -1 -1 0
1;
#X obj 325 204 tgl 15 0 empty empty empty 17 7 0 10 -261234 -1 -1 1
1;
#X obj 341 204 tgl 15 0 empty empty empty 17 7 0 10 -262144 -1 -1 0
1;
#X obj 357 204 tgl 15 0 empty empty empty 17 7 0 10 -262144 -1 -1 0
1;
#X obj 373 204 tgl 15 0 empty empty empty 17 7 0 10 -262144 -1 -1 1
1;
#X obj 389 204 tgl 15 0 empty empty empty 17 7 0 10 -261234 -1 -1 1
1;
#X obj 405 204 tgl 15 0 empty empty empty 17 7 0 10 -262144 -1 -1 0
1;
#X obj 421 204 tgl 15 0 empty empty empty 17 7 0 10 -262144 -1 -1 0
1;
#X obj 437 204 tgl 15 0 empty empty empty 17 7 0 10 -262144 -1 -1 1
1;
#X obj 453 204 tgl 15 0 empty empty empty 17 7 0 10 -261234 -1 -1 0
1;
#X obj 469 204 tgl 15 0 empty empty empty 17 7 0 10 -262144 -1 -1 1
1;
#X obj 485 204 tgl 15 0 empty empty empty 17 7 0 10 -262144 -1 -1 0
1;
#X obj 501 204 tgl 15 0 empty empty empty 17 7 0 10 -262144 -1 -1 0
1;
#X msg 207 250 \$1 0;
#X msg 217 277 \$1 1;
#X msg 254 250 \$1 2;
#X msg 264 277 \$1 3;
#X msg 301 250 \$1 4;
#X msg 311 277 \$1 5;
#X msg 348 250 \$1 6;
#X msg 358 277 \$1 7;
#X msg 395 250 \$1 8;
#X msg 405 277 \$1 9;
#X msg 442 250 \$1 10;
#X msg 452 277 \$1 11;
#X msg 496 250 \$1 12;
#X msg 506 277 \$1 13;
#X msg 550 250 \$1 14;
#X msg 560 277 \$1 15;
#X connect 1 0 2 0;
#X connect 1 1 3 0;
#X connect 2 0 4 0;
#X connect 3 0 4 1;
#X connect 5 0 21 0;
#X connect 6 0 22 0;
#X connect 7 0 23 0;
#X connect 8 0 24 0;
#X connect 9 0 25 0;
#X connect 10 0 26 0;
#X connect 11 0 27 0;
#X connect 12 0 28 0;
#X connect 13 0 29 0;
#X connect 14 0 30 0;
#X connect 15 0 31 0;
#X connect 16 0 32 0;
#X connect 17 0 33 0;
#X connect 18 0 34 0;
#X connect 19 0 35 0;
#X connect 20 0 36 0;
#X connect 21 0 1 0;
#X connect 22 0 1 0;
#X connect 23 0 1 0;
#X connect 24 0 1 0;
#X connect 25 0 1 0;
#X connect 26 0 1 0;
#X connect 27 0 1 0;
#X connect 28 0 1 0;
#X connect 29 0 1 0;
#X connect 30 0 1 0;
#X connect 31 0 1 0;
#X connect 32 0 1 0;
#X connect 33 0 1 0;
#X connect 34 0 1 0;
#X connect 35 0 1 0;
#X connect 36 0 1 0;
