#N canvas 448 23 916 749 12;
#N canvas 0 22 450 278 (subpatch) 0;
#X array sound 6429 float 0;
#X coords 0 1 6428 -1 200 140 1;
#X restore 349 354 graph;
#X obj 355 91 bng 15 250 50 0 empty empty empty 17 7 0 10 -262144 -1
-1;
#X obj 355 149 openpanel;
#X msg 354 186 read -resize \$1 sound;
#X obj 354 224 soundfiler;
#X obj 661 93 bng 15 250 50 0 empty empty empty 17 7 0 10 -262144 -1
-1;
#X obj 663 129 tabplay~ sound;
#X obj 664 187 dac~;
#X obj 775 242 tgl 15 0 empty empty empty 17 7 0 10 -262144 -1 -1 1
1;
#X msg 773 283 \; pd dsp \$1;
#X text 55 24 Pd Drum machine;
#X connect 1 0 2 0;
#X connect 2 0 3 0;
#X connect 3 0 4 0;
#X connect 5 0 6 0;
#X connect 6 0 7 0;
#X connect 6 0 7 1;
#X connect 8 0 9 0;
